# Blender 3.4.0
# www.blender.org
mtllib bumblebee.mtl
o Cube
v 1.000000 1.000000 -1.500000
v 1.000000 -1.000000 -1.500000
v 1.000000 1.000000 1.500000
v 1.000000 -1.000000 1.500000
v -1.000000 1.000000 -1.500000
v -1.000000 -1.000000 -1.500000
v -1.000000 1.000000 1.500000
v -1.000000 -1.000000 1.500000
v 1.000000 1.000000 -1.000000
v 3.000000 1.000000 -1.000000
v 1.000000 1.000000 1.000000
v 3.000000 1.000000 1.000000
v -3.000000 1.000000 -1.000000
v -1.000000 1.000000 -1.000000
v -3.000000 1.000000 1.000000
v -1.000000 1.000000 1.000000
vn -0.0000 1.0000 -0.0000
vn -0.0000 -0.0000 1.0000
vn -1.0000 -0.0000 -0.0000
vn -0.0000 -1.0000 -0.0000
vn 1.0000 -0.0000 -0.0000
vn -0.0000 -0.0000 -1.0000
vt 0.500000 0.625000
vt 0.250000 0.625000
vt 0.250000 0.625000
vt 0.250000 0.375000
vt 0.750000 0.375000
vt 0.500000 1.000000
vt 0.500000 0.375000
vt 0.250000 1.000000
vt 0.750000 0.625000
vt 0.500000 0.625000
vt 1.000000 0.625000
vt 0.000000 0.625000
vt 0.500000 0.375000
vt 0.750000 0.625000
vt 0.750000 1.000000
vt 0.500000 0.625000
vt 1.000000 1.000000
vt 0.000000 1.000000
vt 0.000000 0.000000
vt 0.000000 0.250000
vt 0.250000 0.000000
vt 0.250000 0.250000
vt 0.750000 0.000000
vt 0.750000 0.250000
vt 1.000000 0.000000
vt 1.000000 0.250000
s 0
usemtl Material
f 1/1/1 5/9/1 7/15/1 3/6/1
f 4/7/2 3/5/2 7/14/2 8/16/2
f 8/17/3 7/15/3 5/9/3 6/11/3
f 6/12/4 2/3/4 4/8/4 8/18/4
f 2/3/5 1/1/5 3/6/5 4/8/5
f 6/13/6 5/10/6 1/2/6 2/4/6
f 9/19/1 11/21/1 12/22/1 10/20/1
f 13/23/1 15/25/1 16/26/1 14/24/1
