# Blender 3.5.0
# www.blender.org
mtllib dragonfly.mtl
o Cube
v 0.500000 0.500000 -3.000000
v 0.500000 -0.500000 -3.000000
v 0.500000 0.500000 3.000000
v 0.500000 -0.500000 3.000000
v -0.500000 0.500000 -3.000000
v -0.500000 -0.500000 -3.000000
v -0.500000 0.500000 3.000000
v -0.500000 -0.500000 3.000000
v 0.500000 0.500000 1.562500
v 4.562500 0.500000 1.562500
v 0.500000 0.500000 2.562500
v 4.562500 0.500000 2.562500
v -4.625000 0.500000 1.562500
v -0.500000 0.500000 1.562500
v -4.625000 0.500000 2.562500
v -0.500000 0.500000 2.562500
v 0.500000 0.500000 1.562500
v 4.562500 0.500000 1.562500
v 0.500000 0.500000 2.562500
v 4.562500 0.500000 2.562500
v -4.625000 0.500000 1.562500
v -0.500000 0.500000 1.562500
v -4.625000 0.500000 2.562500
v -0.500000 0.500000 2.562500
v 0.500000 0.500000 3.125000
v 0.500000 -0.500000 3.125000
v -0.500000 0.500000 3.125000
v -0.500000 -0.500000 3.125000
v -0.500000 -0.500000 4.125000
v -0.500000 0.500000 4.125000
v 0.500000 0.500000 4.125000
v 0.500000 -0.500000 4.125000
v 0.500000 0.500000 0.562500
v 3.562500 0.500000 0.562500
v 0.500000 0.500000 1.562500
v 3.562500 0.500000 1.562500
v -3.562500 0.500000 0.562500
v -0.500000 0.500000 0.562500
v -3.562500 0.500000 1.562500
v -0.500000 0.500000 1.562500
v 0.500000 0.500000 0.562500
v 3.562500 0.500000 0.562500
v 0.500000 0.500000 1.562500
v 3.562500 0.500000 1.562500
v -3.562500 0.500000 0.562500
v -0.500000 0.500000 0.562500
v -3.562500 0.500000 1.562500
v -0.500000 0.500000 1.562500
vn -0.0000 1.0000 -0.0000
vn -0.0000 -0.0000 1.0000
vn -1.0000 -0.0000 -0.0000
vn -0.0000 -1.0000 -0.0000
vn 1.0000 -0.0000 -0.0000
vn -0.0000 -0.0000 -1.0000
vt 0.125000 0.125000
vt 0.375000 1.000000
vt 0.500000 0.125000
vt 0.000000 0.125000
vt 0.250000 1.000000
vt 0.250000 0.875000
vt 0.125000 0.875000
vt 0.125000 0.875000
vt 0.500000 0.875000
vt 0.000000 0.875000
vt 0.250000 0.125000
vt 0.375000 0.875000
vt 0.375000 0.125000
vt 0.250000 0.875000
vt 0.250000 0.875000
vt 0.250000 1.000000
vt 0.375000 0.125000
vt 0.125000 1.000000
vt 0.250000 0.125000
vt 0.375000 0.875000
vt 0.875000 0.000000
vt 0.875000 0.500000
vt 1.000000 0.000000
vt 1.000000 0.500000
vt 0.875000 0.000000
vt 0.875000 0.500000
vt 1.000000 0.000000
vt 1.000000 0.500000
vt 0.875000 0.500000
vt 0.875000 0.000000
vt 1.000000 0.500000
vt 1.000000 0.000000
vt 0.875000 0.500000
vt 0.875000 0.000000
vt 1.000000 0.500000
vt 1.000000 0.000000
vt 0.750000 1.000000
vt 0.625000 0.750000
vt 0.875000 0.750000
vt 0.750000 0.875000
vt 1.000000 0.750000
vt 0.750000 0.750000
vt 0.875000 1.000000
vt 0.750000 0.750000
vt 0.500000 0.750000
vt 0.875000 0.875000
vt 0.625000 0.750000
vt 0.875000 0.750000
vt 0.625000 1.000000
vt 0.625000 0.875000
vt 0.875000 0.875000
vt 0.750000 1.000000
vt 0.750000 0.875000
vt 0.500000 0.875000
vt 0.750000 0.875000
vt 0.625000 0.875000
vt 0.875000 0.875000
vt 0.625000 0.875000
vt 1.000000 0.875000
vt 0.750000 0.875000
vt 0.750000 0.000000
vt 0.750000 0.375000
vt 0.875000 0.000000
vt 0.875000 0.375000
vt 0.750000 0.000000
vt 0.750000 0.375000
vt 0.875000 0.000000
vt 0.875000 0.375000
vt 0.750000 0.375000
vt 0.750000 0.000000
vt 0.875000 0.375000
vt 0.875000 0.000000
vt 0.750000 0.375000
vt 0.750000 0.000000
vt 0.875000 0.375000
vt 0.875000 0.000000
s 0
usemtl Material
f 1/1/1 5/11/1 7/15/1 3/7/1
f 4/8/2 3/6/2 7/16/2 8/18/2
f 8/19/3 7/17/3 5/12/3 6/14/3
f 6/13/4 2/3/4 4/9/4 8/20/4
f 2/4/5 1/1/5 3/7/5 4/10/5
f 6/14/6 5/12/6 1/2/6 2/5/6
f 9/21/1 11/23/1 12/24/1 10/22/1
f 13/25/1 15/27/1 16/28/1 14/26/1
f 17/29/4 18/30/4 20/32/4 19/31/4
f 21/33/4 22/34/4 24/36/4 23/35/4
f 26/40/6 28/46/6 27/43/6 25/37/6
f 32/58/2 31/55/2 30/52/2 29/49/2
f 25/38/1 27/44/1 30/53/1 31/56/1
f 27/45/3 28/47/3 29/50/3 30/54/3
f 28/48/4 26/41/4 32/59/4 29/51/4
f 26/42/5 25/39/5 31/57/5 32/60/5
f 33/61/1 35/63/1 36/64/1 34/62/1
f 37/65/1 39/67/1 40/68/1 38/66/1
f 41/69/4 42/70/4 44/72/4 43/71/4
f 45/73/4 46/74/4 48/76/4 47/75/4
