# Blender 3.5.0
# www.blender.org
mtllib moth.mtl
o Cube
v 0.500000 0.500000 -1.000000 0.0000 0.0000 0.0000
v 0.500000 -0.500000 -1.000000 0.0000 0.0000 0.0000
v 0.500000 0.500000 1.000000 0.0000 0.0000 0.0000
v 0.500000 -0.500000 1.000000 0.0000 0.0000 0.0000
v -0.500000 0.500000 -1.000000 0.0000 0.0000 0.0000
v -0.500000 -0.500000 -1.000000 0.0000 0.0000 0.0000
v -0.500000 0.500000 1.000000 0.0000 0.0000 0.0000
v -0.500000 -0.500000 1.000000 0.0000 0.0000 0.0000
v 1.188209 0.521877 -1.105345 1.0000 1.0000 1.0000
v 1.895316 0.521877 -0.398238 1.0000 1.0000 1.0000
v -0.207983 0.521877 0.290847 0.0000 0.0000 0.0000
v 0.499124 0.521877 0.997953 0.0000 0.0000 0.0000
v -1.893375 0.521877 -0.396758 1.0000 1.0000 1.0000
v -1.186269 0.521877 -1.103865 1.0000 1.0000 1.0000
v -0.497183 0.521877 0.999434 0.0000 0.0000 0.0000
v 0.209923 0.521877 0.292327 0.0000 0.0000 0.0000
v 1.188209 0.521877 -1.105345 1.0000 1.0000 1.0000
v 1.895316 0.521877 -0.398238 1.0000 1.0000 1.0000
v -0.207983 0.521877 0.290847 0.0000 0.0000 0.0000
v 0.499124 0.521877 0.997953 0.0000 0.0000 0.0000
v -1.893375 0.521877 -0.396758 1.0000 1.0000 1.0000
v -1.186269 0.521877 -1.103865 1.0000 1.0000 1.0000
v -0.497183 0.521877 0.999434 0.0000 0.0000 0.0000
v 0.209923 0.521877 0.292327 0.0000 0.0000 0.0000
vn -0.0000 1.0000 -0.0000
vn -0.0000 -0.0000 1.0000
vn -1.0000 -0.0000 -0.0000
vn -0.0000 -1.0000 -0.0000
vn 1.0000 -0.0000 -0.0000
vn -0.0000 -0.0000 -1.0000
vt 0.750191 0.500191
vt 0.250000 0.500191
vt 0.749950 0.499859
vt 0.500000 0.500191
vt 0.000191 0.500191
vt 0.749950 0.749809
vt 0.750191 0.999809
vt 0.500383 1.000141
vt 0.250000 0.999809
vt 0.750333 1.000141
vt 0.500000 0.999809
vt 0.000191 0.999809
vt 1.000000 0.500191
vt 0.000191 0.500191
vt 0.500000 0.499859
vt 0.250000 0.500191
vt 0.250191 0.500191
vt 0.500000 0.749809
vt 1.000000 0.999809
vt 0.500383 0.750191
vt 0.000191 0.999809
vt 0.750333 0.750191
vt 0.250000 0.999809
vt 0.250191 0.999809
vt 0.253225 0.000142
vt 0.000142 0.000142
vt 0.253225 0.499858
vt 0.000142 0.499858
vt 0.253225 0.000142
vt 0.000142 0.000142
vt 0.253225 0.499858
vt 0.000142 0.499858
vt 0.253225 0.499858
vt 0.000142 0.499858
vt 0.253225 0.000142
vt 0.000142 0.000142
vt 0.000142 0.000142
vt 0.253225 0.000142
vt 0.000142 0.499858
vt 0.253225 0.499858
s 0
usemtl Material
f 1/1/1 5/13/1 7/19/1 3/7/1
f 4/10/2 3/8/2 7/20/2 8/22/2
f 8/23/3 7/21/3 5/14/3 6/16/3
f 6/17/4 2/4/4 4/11/4 8/24/4
f 2/5/5 1/2/5 3/9/5 4/12/5
f 6/18/6 5/15/6 1/3/6 2/6/6
f 9/25/1 11/27/1 12/28/1 10/26/1
f 13/29/1 15/31/1 16/32/1 14/30/1
f 17/33/4 18/34/4 20/36/4 19/35/4
f 21/37/4 22/38/4 24/40/4 23/39/4
